<svg height="121" width="121" xmlns="http://www.w3.org/2000/svg" xmlns:xlink="http://www.w3.org/1999/xlink"><defs><circle cx="50" cy="50" id="a" r="50"/></defs><g transform="translate(10 10)" fill="none" fill-rule="evenodd"><use fill="#316FC5" xlink:href="#a"/><path d="m9.016 42.304-1.924-4.689-1.913 4.69h3.837Zm42.391-1.867c-.386.235-.843.243-1.39.243H46.6v-2.613h3.462c.49 0 1 .022 1.333.212.365.172.59.536.59 1.04 0 .514-.214.928-.579 1.118 0 0 .365-.19 0 0Zm24.364 1.867-1.945-4.689-1.935 4.69h3.88ZM30.355 47.38h-2.882l-.011-9.212-4.077 9.212h-2.468l-4.087-9.22v9.22h-5.718l-1.08-2.624H4.177L3.086 47.38H.033l5.034-11.762h4.177l4.782 11.136V35.618h4.588l3.68 7.979 3.38-7.98h4.68V47.38Zm11.487 0H32.45V35.618h9.392v2.45h-6.58v2.12h6.422v2.41H35.26v2.349h6.58v2.433Zm13.241-8.595c0 1.876-1.251 2.845-1.98 3.136.615.234 1.14.647 1.39.99.397.585.466 1.108.466 2.158v2.31h-2.836l-.01-1.483c0-.707.067-1.725-.445-2.291-.41-.414-1.037-.503-2.049-.503h-3.018v4.278h-2.81V35.618h6.465c1.437 0 2.496.038 3.405.563.89.526 1.422 1.293 1.422 2.604 0 0 0-1.311 0 0Zm4.5 8.595h-2.87V35.618h2.87V47.38Zm33.28 0h-3.985l-5.329-8.828v8.828h-5.725l-1.094-2.624h-5.84l-1.062 2.624h-3.29c-1.366 0-3.096-.303-4.076-1.301-.988-.999-1.502-2.352-1.502-4.49 0-1.745.307-3.34 1.515-4.6.91-.938 2.332-1.371 4.27-1.371h2.722v2.52h-2.665c-1.026 0-1.605.153-2.163.697-.48.495-.809 1.431-.809 2.664 0 1.26.25 2.169.773 2.762.433.466 1.22.607 1.96.607h1.262l3.963-9.25H76l4.76 11.125V35.618h4.28l4.943 8.192v-8.192h2.88V47.38ZM0 49.69h4.804l1.083-2.613h2.425l1.08 2.613h9.451v-1.997l.844 2.005h4.906l.844-2.035v2.027h23.488l-.01-4.289h.454c.318.011.41.04.41.566v3.723h12.149v-.998c.98.525 2.504.998 4.51.998h5.11l1.094-2.613h2.425l1.07 2.613h9.848v-2.482l1.491 2.482h7.892V33.286h-7.81v1.937l-1.094-1.937H78.45v1.937l-1.005-1.937H66.62c-1.813 0-3.405.253-4.692.957v-.957h-7.47v.957c-.82-.726-1.935-.957-3.176-.957H23.99l-1.831 4.237-1.88-4.237H11.68v1.937l-.945-1.937H3.405L0 41.085v8.605Zm100 8.661h-5.124c-.511 0-.851.02-1.138.213-.296.19-.41.473-.41.846 0 .444.25.746.614.876.297.103.616.134 1.084.134l1.524.04c1.537.038 2.563.303 3.19.947.113.09.182.19.26.292V58.35Zm0 7.756c-.683.999-2.014 1.505-3.815 1.505h-5.43V65.09h5.408c.536 0 .912-.07 1.138-.29.195-.183.332-.447.332-.768 0-.343-.137-.615-.343-.778-.204-.18-.501-.261-.99-.261-2.64-.09-5.934.081-5.934-3.642 0-1.706 1.083-3.502 4.034-3.502h5.6v-2.34h-5.203c-1.57 0-2.711.375-3.519.96v-.96h-7.696c-1.23 0-2.675.304-3.358.96v-.96H66.48v.96c-1.094-.79-2.94-.96-3.791-.96h-9.065v.96c-.865-.838-2.79-.96-3.962-.96H39.517l-2.321 2.512-2.174-2.513H19.867v16.416h14.87l2.391-2.552 2.254 2.552 9.166.008v-3.862h.9c1.217.02 2.651-.03 3.917-.577v4.43h7.56v-4.278h.364c.466 0 .511.019.511.484v3.794h22.966c1.459 0 2.983-.373 3.827-1.05v1.05h7.284c1.516 0 2.997-.213 4.123-.757v-3.058Zm-11.214-4.7c.547.567.84 1.282.84 2.493 0 2.53-1.58 3.712-4.416 3.712h-5.476V65.09h5.454c.533 0 .911-.07 1.148-.29.194-.183.332-.447.332-.768 0-.343-.15-.615-.343-.778-.215-.18-.511-.261-1-.261-2.63-.09-5.923.081-5.923-3.642 0-1.706 1.073-3.502 4.02-3.502h5.636v2.504h-5.157c-.511 0-.844.019-1.127.212-.307.19-.422.473-.422.847 0 .444.262.745.615.876.297.103.616.133 1.095.133l1.513.041c1.526.037 2.574.301 3.21.946 0 0-.636-.645 0 0Zm-25.369-.726c-.376.223-.841.242-1.388.242h-3.415v-2.642h3.461c.501 0 1.002.01 1.342.212.364.19.582.555.582 1.059 0 .503-.218.908-.582 1.129 0 0 .364-.22 0 0Zm1.698 1.464c.626.23 1.137.645 1.377.988.397.574.455 1.11.466 2.147v2.332h-2.822V66.14c0-.708.068-1.756-.455-2.303-.41-.421-1.037-.522-2.062-.522h-3.005v4.297h-2.825V55.847h6.49c1.424 0 2.46.063 3.383.556.888.536 1.446 1.27 1.446 2.612 0 1.878-1.253 2.836-1.993 3.13 0 0 .74-.294 0 0Zm3.552-6.298h9.383v2.433h-6.584v2.14h6.423v2.4h-6.423v2.34l6.584.011v2.441h-9.383V55.847Zm-18.969 5.43h-3.633V58.28h3.666c1.015 0 1.72.413 1.72 1.442 0 1.018-.672 1.554-1.753 1.554Zm-6.433 5.265L38.95 61.75l4.316-4.64v9.432ZM32.118 65.16h-6.912v-2.34h6.172v-2.4h-6.172v-2.14h7.048l3.075 3.429-3.21 3.451Zm22.351-5.437c0 3.268-2.438 3.943-4.896 3.943h-3.508v3.946h-5.464l-3.462-3.894-3.598 3.894H22.405V55.847h11.308l3.459 3.857 3.576-3.857h8.983c2.231 0 4.738.618 4.738 3.876 0 0 0-3.258 0 0Zm0 0" fill="#FFF" mask="url(#b)"/></g></svg>