<svg width="56" height="56" viewBox="0 0 56 56" fill="none" xmlns="http://www.w3.org/2000/svg">
<circle cx="28" cy="28" r="28" fill="#333666"/>
<path d="M43.19 34.0961C40.9961 39.8499 35.6516 43.9877 29.2611 44.4727V40.1816H26.9694V44.4856C20.5389 44.0818 15.1117 39.9299 12.85 34.1962C12.1139 34.0734 11.7678 34.0338 11.1172 33.7833C13.4506 40.8694 20.1367 46.0001 28.0005 46.0001C35.8073 46.0001 42.4523 41.026 44.8327 33.8645C44.3104 34.0223 43.7344 34.1444 43.19 34.0961Z" fill="white"/>
<path d="M22.08 31.3783C22.325 33.4167 23.9394 33.3155 24.6128 33.181C24.7883 33.1462 24.9055 32.9816 24.8805 32.8039C24.7855 32.1279 24.3466 30.5878 22.3111 31.0499C22.1628 31.0845 22.0617 31.2266 22.08 31.3783Z" fill="#F69C26"/>
<path d="M22.1545 20.6378C20.4772 22.4183 21.8028 23.8178 22.44 24.3306C22.6061 24.4645 22.8461 24.4456 22.9894 24.2878C23.5356 23.685 24.6083 22.1072 22.6311 20.5995C22.4861 20.4889 22.2789 20.5056 22.1545 20.6378Z" fill="#F69C26"/>
<path d="M29.7094 26.875C28.3417 25.3439 27.0756 26.3511 26.6006 26.8472C26.4767 26.9766 26.475 27.1783 26.5967 27.3094C27.0617 27.8094 28.3033 28.8205 29.7072 27.2761C29.8099 27.1633 29.8106 26.9889 29.7094 26.875Z" fill="#F69C26"/>
<path d="M28.0079 16.2389C26.1839 17.8683 27.3839 19.3767 27.9744 19.9428C28.1282 20.0906 28.3689 20.0923 28.5256 19.9472C29.1212 19.3934 30.3255 17.9139 28.4862 16.2417C28.3518 16.1195 28.1433 16.1184 28.0079 16.2389Z" fill="#F69C26"/>
<path d="M34.2223 31.3783C33.9773 33.4167 32.3627 33.3155 31.6895 33.181C31.5138 33.1462 31.3968 32.9816 31.4216 32.8039C31.5167 32.1279 31.9556 30.5878 33.9912 31.0499C34.1395 31.0845 34.2405 31.2266 34.2223 31.3783Z" fill="#F69C26"/>
<path d="M33.365 20.74C31.541 22.3695 32.741 23.8778 33.3316 24.4439C33.4856 24.5917 33.7261 24.5934 33.8827 24.4484C34.4783 23.8945 35.6829 22.415 33.8433 20.7428C33.7084 20.62 33.5007 20.6189 33.365 20.74Z" fill="#F69C26"/>
<path d="M17.0455 27.0005C15.3683 28.7811 16.6939 30.1804 17.3311 30.6934C17.4972 30.8271 17.7372 30.8082 17.8805 30.6506C18.4266 30.0476 19.4994 28.47 17.5222 26.9622C17.3778 26.8517 17.17 26.8689 17.0455 27.0005Z" fill="#F69C26"/>
<path d="M38.5323 26.9733C36.7083 28.6028 37.9083 30.1112 38.4989 30.6771C38.6529 30.825 38.8934 30.8266 39.05 30.6817C39.6456 30.1279 40.8499 28.6484 39.0106 26.9761C38.8755 26.8533 38.6672 26.8522 38.5323 26.9733Z" fill="#F69C26"/>
<path d="M28 10.4989C18.2028 10.4989 10.2317 18.4617 10.2317 28.2489C10.2317 29.7601 10.4828 31.4482 10.8417 32.8555C10.85 32.8894 10.8766 32.9162 10.9094 32.9272C11.4128 33.0993 11.6928 33.2467 12.5811 33.351C12.5806 33.3494 12.58 33.3484 12.58 33.3467C12.8394 33.3783 13.0933 33.3967 13.3311 33.3967C14.3217 33.3967 15.0389 33.1679 15.5211 32.9317C15.6622 32.8627 15.8278 32.8801 15.9522 32.9761C17.1483 33.8939 18.4883 34.5267 19.6528 35.0755C21.6528 36.0183 22.8789 36.6523 22.8789 37.746V42.7483C22.8789 42.7856 22.8989 42.8207 22.9311 42.8395C23.4544 43.1433 23.9928 43.23 24.3144 43.2789C24.3761 43.2882 24.4305 43.24 24.4305 43.1777V38.2688C24.4305 38.1828 24.4594 38.0973 24.51 38.0278C25.2933 36.9577 25.8344 36.2334 26.2766 35.6417C26.8144 34.9222 27.8539 33.5216 27.8539 33.5216L27.8544 33.5211C27.9749 33.3522 28.2261 33.3527 28.346 33.5216C28.346 33.5216 29.3855 34.9222 29.9233 35.6417C30.3656 36.2334 30.9067 36.9573 31.69 38.0278C31.7407 38.0973 31.7695 38.1828 31.7695 38.2688V43.1629C31.7695 43.2273 31.8288 43.2777 31.8923 43.2651C32.3606 43.1712 32.8134 43.0012 33.2578 42.819C33.296 42.8032 33.3215 42.7655 33.3215 42.7239L33.3349 37.8267C33.3349 36.7323 34.5612 36.099 36.5612 35.1555C37.7199 34.6088 39.0534 33.9793 40.2455 33.0683C40.3639 32.9778 40.5189 32.9551 40.656 33.0139C41.1312 33.2183 41.7934 33.3979 42.6694 33.3979C42.9077 33.3979 43.1627 33.3799 43.4228 33.3477C43.4223 33.3489 43.4223 33.3506 43.4216 33.3518C43.9699 33.3238 44.4812 33.2472 45.0995 32.9427C45.1267 32.9296 45.1484 32.904 45.1561 32.8744C45.5551 31.3995 45.7688 29.849 45.7688 28.2495C45.7683 18.4617 37.7977 10.4989 28 10.4989ZM28 11.9778C30.5655 11.9778 32.9922 12.5761 35.1522 13.6378C35.1995 13.6611 35.2222 13.7178 35.2045 13.7678C34.6906 15.2067 33.9611 16.3989 33.0744 17.4578C32.8845 17.6844 32.5151 17.6411 32.4012 17.3683C31.9966 16.3989 32.2488 15.5739 32.4884 15.0944C32.6039 14.8628 32.4884 14.5828 32.2388 14.5117L32.2278 14.5083C32.0583 14.46 31.8784 14.5167 31.7726 14.655C31.2351 15.36 30.8411 17.0239 31.5749 18.665C31.6423 18.815 31.6005 18.9933 31.4789 19.1039C30.5433 19.955 29.5078 20.7489 28.415 21.5689C28.2689 21.6783 28.0657 21.6778 27.92 21.5667C26.8333 20.7367 25.8028 19.9333 24.8717 19.0744C24.7483 18.9605 24.7089 18.7778 24.7817 18.6261C25.5883 16.9489 25.1883 15.2233 24.6383 14.5006C24.5328 14.3617 24.3522 14.3039 24.1844 14.3517L24.1689 14.3561C23.9205 14.4272 23.8033 14.7033 23.9183 14.9322C24.1672 15.4278 24.4333 16.3 23.9611 17.3195C23.835 17.5922 23.4611 17.63 23.2694 17.3983C22.3661 16.3045 21.625 15.0711 21.1094 13.575C21.1028 13.5561 21.09 13.5417 21.0805 13.5244C23.1817 12.5333 25.5267 11.9778 28 11.9778ZM18.4411 32.3101C18.3394 32.52 18.0856 32.6038 17.88 32.4928C15.8589 31.4012 13.9905 29.8821 13.7006 26.985C13.6811 26.7883 13.4955 26.6283 13.2978 26.6283H13.0772C12.8289 26.6283 12.6505 26.8306 12.6744 27.0778C12.8366 28.7728 13.3867 30.0933 14.15 31.15C14.3167 31.3807 14.2128 31.7088 13.9417 31.7945C13.3422 31.9834 12.7933 31.9662 12.2333 31.8301C12.195 31.8205 12.1644 31.79 12.1556 31.751C11.8961 30.6045 11.7189 29.379 11.7189 28.25C11.7189 27.1367 11.8333 26.0495 12.0478 24.9983C12.0617 24.9317 12.135 24.8994 12.1967 24.9295C12.6844 25.1639 13.2366 25.1372 13.6017 25.0778C13.8472 25.0378 14.0056 24.8017 13.9611 24.5567C13.8678 24.0411 13.5844 23.2089 12.7305 22.9344C12.6744 22.9167 12.6422 22.8578 12.6617 22.8022C13.9855 19.0911 16.6206 15.9978 20.0067 14.0811C20.0622 14.05 20.1322 14.0778 20.1539 14.1378C20.4689 15.0278 20.8333 15.8367 21.2417 16.585C21.2872 16.6678 21.2072 16.7578 21.1178 16.7272C20.2078 16.4139 19.3444 16.8911 18.8744 17.24C18.6489 17.4072 18.5944 17.7228 18.7622 17.9478C19.2672 18.6256 20.5 19.8067 22.2728 18.4089C22.3178 18.3733 22.3828 18.3806 22.4167 18.4261C23.5406 19.935 24.8967 21.1906 26.4572 22.4005C26.6683 22.5639 26.6694 22.8806 26.4578 23.0433C25.3367 23.905 24.1961 24.8344 23.0967 25.9056C22.9594 26.0389 22.7478 26.0606 22.5872 25.9561C22.4111 25.8417 22.2383 25.73 22.0689 25.6206C19.6833 24.0817 17.9433 22.9595 16.8606 19.2889C16.8144 19.1328 16.6511 19.0422 16.4939 19.0856L16.0961 19.2533C15.9339 19.2983 15.8411 19.4678 15.8889 19.6289C16.2017 20.6911 16.5383 21.5789 16.9055 22.3383C16.9789 22.4895 16.8822 22.6672 16.715 22.6833L15.43 22.8089C15.2411 22.8272 15.0967 22.9861 15.0967 23.1761V23.3756C15.0967 23.5794 15.2617 23.7445 15.4655 23.7445H17.6606C17.6905 23.7605 17.7156 23.7739 17.7461 23.7894C18.69 25.1494 19.8206 26.0167 21.2278 26.9244C21.2817 26.9595 21.3361 26.9944 21.3905 27.0294C21.5978 27.1633 21.6378 27.4489 21.4783 27.6367C20.3605 28.9568 19.3233 30.4839 18.4411 32.3101ZM26.9178 32.1694C26.8372 32.2783 26.665 32.5171 26.665 32.5171C26.0005 33.4289 25.5917 33.9655 25.0339 34.7122C24.8144 35.0062 24.5705 35.3322 24.285 35.7167C24.1339 35.9201 23.8294 35.9445 23.6611 35.7551C22.8872 34.8849 21.6233 34.2888 20.3144 33.6718C20.22 33.6273 20.1244 33.5822 20.0278 33.5373C19.825 33.4427 19.7355 33.1973 19.8328 32.9955C20.6989 31.1968 21.7194 29.7145 22.83 28.4339C22.9667 28.2767 23.2028 28.2511 23.37 28.3744C24.4839 29.1968 25.6617 30.2167 26.9017 31.6651C27.0239 31.8084 27.0294 32.0178 26.9178 32.1694ZM28.4079 30.3282C28.2433 30.5133 27.9568 30.5133 27.7928 30.3282C26.6539 29.0461 25.5594 28.0878 24.5355 27.31C24.3394 27.1611 24.3233 26.8694 24.5028 26.7006C25.6044 25.6661 26.7578 24.7578 27.9121 23.885C28.0578 23.775 28.2584 23.7761 28.4029 23.8872C29.5279 24.7544 30.6517 25.6572 31.7273 26.6817C31.9049 26.8511 31.8878 27.1411 31.6922 27.2895C30.6601 28.0711 29.5568 29.0351 28.4079 30.3282ZM36.2056 33.6082C36.1022 33.6567 36 33.7045 35.899 33.7518C34.6027 34.3629 33.3512 34.9539 32.575 35.8096C32.4055 35.9961 32.1027 35.9705 31.9527 35.7678C31.6511 35.3611 31.3956 35.0189 31.1661 34.7122C30.6082 33.9655 29.5233 32.5011 29.5233 32.5011C29.4429 32.3889 29.3621 32.2783 29.2821 32.1694C29.1706 32.0178 29.1761 31.8084 29.2984 31.6656C30.544 30.2105 31.7273 29.1877 32.8456 28.3639C33.014 28.24 33.2511 28.2667 33.3872 28.425C34.5034 29.7272 35.5295 31.2355 36.4017 33.0678C36.4977 33.2694 36.4083 33.5139 36.2056 33.6082ZM43.739 31.8955C43.2506 31.9423 42.7389 31.9356 42.3121 31.8499C42.0255 31.7928 41.904 31.4516 42.0745 31.2144C42.8322 30.1606 43.3777 28.8444 43.5393 27.1572C43.5632 26.91 43.3851 26.7078 43.1367 26.7078H42.9483C42.7178 26.7078 42.5328 26.8683 42.5134 27.0645C42.2245 29.9516 40.3678 31.47 38.3544 32.5611C38.1483 32.6728 37.8932 32.5883 37.7922 32.3767C36.9034 30.5183 35.8593 28.9661 34.735 27.6245C34.5772 27.4361 34.6178 27.1522 34.8243 27.0189C34.8738 26.9867 34.9232 26.955 34.9722 26.9233C36.3823 26.0139 37.5121 25.1539 38.4544 23.7972C38.4845 23.7811 38.5094 23.7678 38.5399 23.7522H40.6983C40.9022 23.7522 41.0672 23.5872 41.0672 23.3833V23.1839C41.0672 22.9939 40.9232 22.835 40.7338 22.8167L39.4878 22.695C39.3189 22.6783 39.221 22.4983 39.2943 22.3456C39.6578 21.5922 39.9916 20.7111 40.3023 19.6567C40.3501 19.495 40.2572 19.3256 40.095 19.2811L39.7055 19.085C39.5484 19.0417 39.3851 19.1322 39.339 19.2883C38.256 22.9589 36.5168 24.0811 34.1306 25.62C33.9706 25.7233 33.8073 25.8289 33.6406 25.9372C33.4784 26.0428 33.264 26.0206 33.1262 25.8844C32.0573 24.83 30.9512 23.9111 29.8627 23.0583C29.6528 22.8939 29.6573 22.5778 29.8694 22.4161C31.3034 21.3233 32.5466 20.1989 33.5966 18.8795C33.6301 18.8378 33.6895 18.8306 33.7332 18.8611C35.3939 20.0122 36.55 18.8994 37.0355 18.2483C37.2012 18.0267 37.1539 17.7106 36.9316 17.545C36.534 17.2483 35.8484 16.8561 35.0906 16.9367C35.0089 16.9456 34.9533 16.86 34.9927 16.7883C35.4132 16.0294 35.7884 15.2061 36.1139 14.2944C36.1356 14.2339 36.2073 14.2067 36.2627 14.2395C39.536 16.1767 42.0771 19.225 43.3583 22.8628C43.3767 22.9144 43.3488 22.97 43.2989 22.9917C42.5538 23.3122 42.2983 24.0844 42.2123 24.5683C42.1688 24.81 42.3295 25.0383 42.5722 25.0778C42.9001 25.1311 43.3789 25.1572 43.8278 24.9922C43.8882 24.97 43.9551 25.0033 43.9673 25.0667C44.1727 26.0967 44.2811 27.1611 44.2811 28.2506C44.2811 29.3945 44.0967 30.6499 43.8304 31.816C43.8199 31.859 43.7834 31.8912 43.739 31.8955Z" fill="#F69C26"/>
</svg>
