<svg width="48" height="48" viewBox="0 0 48 48" fill="none" xmlns="http://www.w3.org/2000/svg">
<circle cx="24" cy="24" r="24" fill="#F04E21"/>
<path d="M33.4773 20.1955L36.3867 15.1126C36.4795 14.9507 36.4795 14.7542 36.3867 14.5917L33.3262 9.25472V9.2432C33.3147 9.23168 33.3032 9.22016 33.3032 9.19712L33.2917 9.18496C33.2802 9.17344 33.2686 9.1504 33.2571 9.13888C33.2456 9.12736 33.2219 9.11584 33.2104 9.10432L33.1989 9.0928C33.1874 9.08128 33.1758 9.06976 33.1643 9.06976C33.1643 9.06976 33.1528 9.06976 33.1528 9.0576C33.1176 9.03456 33.083 9.02304 33.037 9.01152H33.0248C33.0133 9.01152 32.9902 9 32.9787 9H15.579H15.5675C15.5554 9 15.5323 9 15.5208 9.01152H15.5093C15.4747 9.02304 15.428 9.03456 15.3934 9.0576C15.3934 9.0576 15.3819 9.0576 15.3819 9.06976C15.3704 9.08128 15.3582 9.08128 15.3467 9.0928L15.3352 9.10432C15.3237 9.11584 15.3006 9.12736 15.2891 9.13888C15.2776 9.1504 15.2661 9.17344 15.2539 9.18496L15.2424 9.19712C15.2309 9.20864 15.22 9.22016 15.22 9.2432V9.25472L12.0904 14.5923C11.9976 14.7542 11.9976 14.9507 12.0904 15.1126L15.0811 20.3344V37.5267C15.0811 37.5382 15.0811 37.5613 15.0926 37.5728V37.585C15.1042 37.6195 15.1157 37.6656 15.1387 37.7002C15.1387 37.7002 15.1387 37.7123 15.1502 37.7123C15.1624 37.7238 15.1624 37.7354 15.1739 37.7469L15.1854 37.7584C15.197 37.7699 15.2085 37.793 15.22 37.8045C15.2315 37.816 15.2546 37.8275 15.2667 37.8397L15.2782 37.8512C15.2898 37.8627 15.3013 37.8742 15.3243 37.8742H15.3358L20.6798 40.9302C20.7611 40.977 20.8539 41 20.9352 41C21.028 41 21.1086 40.977 21.1899 40.9302L26.5339 37.8742H26.5454C26.557 37.8627 26.5691 37.8512 26.5922 37.8512L26.6037 37.8397C26.6152 37.8275 26.6382 37.816 26.6498 37.8045C26.6613 37.793 26.6734 37.7699 26.685 37.7584L26.6965 37.7469C26.708 37.7354 26.7195 37.7238 26.7195 37.7123C26.7195 37.7123 26.7195 37.7002 26.731 37.7002C26.7541 37.6656 26.7662 37.631 26.7778 37.585V37.5728C26.7778 37.5613 26.7893 37.5382 26.7893 37.5267V37.5152V31.3904H32.9205C32.9326 31.3904 32.9557 31.3904 32.9672 31.3789H32.9787C33.0133 31.3674 33.06 31.3558 33.0946 31.3328C33.0946 31.3328 33.1061 31.3328 33.1061 31.3213C33.1176 31.3098 33.1291 31.3098 33.1413 31.2982L33.1528 31.2867C33.1643 31.2752 33.1874 31.2637 33.1989 31.2515C33.2104 31.24 33.2219 31.2285 33.2334 31.2054L33.2456 31.1939C33.2571 31.1824 33.2686 31.1709 33.2686 31.1478V31.1363L36.3291 25.7987C36.4213 25.6368 36.4213 25.4403 36.3291 25.2778L33.4773 20.1955V20.1955ZM29.5125 25.0115H20.9691C20.8411 25 20.7144 25.0461 20.6101 25.1274L20.5979 25.1389L20.5749 25.1619C20.4821 25.2547 20.4245 25.3821 20.4245 25.5331V34.1002L16.1122 36.5661V20.705H31.9701L29.5125 25.0122V25.0115ZM25.78 36.5546L21.4677 34.088V26.783L25.78 31.0902V36.5546ZM29.5125 14.3248H18.964L16.4949 10.0304H31.9816L29.5125 14.3254V14.3248ZM18.964 15.368H29.5125L31.9816 19.6752H16.4949L18.964 15.368ZM32.8744 19.1427L30.4168 14.847L32.8744 10.552L35.332 14.847L32.8744 19.1427V19.1427ZM15.6021 10.5514L18.0597 14.8464L15.6021 19.1421L13.133 14.8464L15.6021 10.5514V10.5514ZM20.9461 39.912L16.6453 37.4576L20.9461 35.0032L25.2469 37.4576L20.9461 39.912ZM26.5102 30.3485L22.1979 26.0419H29.5131L31.9816 30.3491H26.5102V30.3485ZM32.8744 29.8275L30.4168 25.5331L32.8744 21.2374L35.332 25.5325L32.8744 29.8275V29.8275Z" fill="white"/>
</svg>
