<svg xmlns="http://www.w3.org/2000/svg" width="33" height="33" fill="none"><circle cx="16.5" cy="16.253" r="16" fill="#6366F1"/><path fill="#6366F1" d="m26.94 15.173-2.677-4.745a1.499 1.499 0 0 0-1.306-.763H10.042a1.5 1.5 0 0 0-1.306.763l-2.677 4.745a1.5 1.5 0 0 0 .246 1.798l9.487 9.487a1 1 0 0 0 1.414 0l9.488-9.488a1.5 1.5 0 0 0 .246-1.797Z"/><path stroke="#fff" stroke-linecap="round" stroke-linejoin="round" stroke-width="2" d="m26.94 15.173-2.677-4.745a1.5 1.5 0 0 0-1.307-.763H10.042a1.5 1.5 0 0 0-1.307.763L6.06 15.173a1.5 1.5 0 0 0 .246 1.798l9.488 9.487a1 1 0 0 0 1.413 0l9.489-9.488a1.5 1.5 0 0 0 .245-1.797h0Z"/><path stroke="#fff" stroke-linecap="round" stroke-linejoin="round" stroke-width="2" d="m13.886 9.665-1.478 5.87a2 2 0 0 0 .083 1.233l4.004 9.983h.008m2.61-17.086 1.477 5.87c.104.41.075.841-.082 1.233l-4.005 9.983M6 16.165h21"/></svg>