<svg xmlns="http://www.w3.org/2000/svg" width="32" height="33" fill="none"><circle cx="16" cy="16.074" r="16" fill="#E0E7FF"/><path fill="#4F46E5" d="M15.662 6.92a.758.758 0 0 1 .676 0l9.257 4.617c.113.056.207.14.273.242a.624.624 0 0 1 0 .676.691.691 0 0 1-.273.242l-9.257 4.617a.757.757 0 0 1-.676 0l-9.257-4.617a.692.692 0 0 1-.273-.242.623.623 0 0 1 0-.676.692.692 0 0 1 .273-.242l9.257-4.617Z"/><path fill="#4F46E5" d="m7.707 14.845 7.28 3.63c.311.156.66.237 1.013.237.354 0 .702-.08 1.013-.236l7.28-3.632 1.301.65a.69.69 0 0 1 .273.242.623.623 0 0 1 0 .676.69.69 0 0 1-.273.243l-9.257 4.616a.757.757 0 0 1-.674 0l-9.257-4.616a.691.691 0 0 1-.273-.243.623.623 0 0 1 0-.676.691.691 0 0 1 .273-.242l1.3-.65Z"/><path fill="#4F46E5" d="m14.987 22.433-7.28-3.632-1.301.65a.691.691 0 0 0-.273.242.623.623 0 0 0 0 .676c.065.102.16.186.273.243l9.257 4.617c.21.105.464.105.674 0l9.257-4.617a.69.69 0 0 0 .273-.243.623.623 0 0 0 0-.675.69.69 0 0 0-.273-.243l-1.3-.649-7.281 3.632c-.311.155-.66.236-1.013.236-.354 0-.702-.082-1.013-.237Z"/></svg>