<svg xmlns="http://www.w3.org/2000/svg" width="33" height="33" fill="none"><circle cx="16.136" cy="16.335" r="16" fill="#E2E8F0"/><path fill="#1E293B" fill-rule="evenodd" d="M6.386 10.335a3 3 0 0 1 3-3h13.5a3 3 0 0 1 3 3v12a3 3 0 0 1-3 3h-13.5a3 3 0 0 1-3-3v-12Zm18 3h-16.5v9a1.5 1.5 0 0 0 1.5 1.5h13.5a1.5 1.5 0 0 0 1.5-1.5v-9Zm-15-3.75a.75.75 0 0 0-.75.75v.008c0 .414.336.75.75.75h.008a.75.75 0 0 0 .75-.75v-.008a.75.75 0 0 0-.75-.75h-.008Zm1.5.75a.75.75 0 0 1 .75-.75h.008a.75.75 0 0 1 .75.75v.008a.75.75 0 0 1-.75.75h-.008a.75.75 0 0 1-.75-.75v-.008Zm3-.75a.75.75 0 0 0-.75.75v.008c0 .414.336.75.75.75h.008a.75.75 0 0 0 .75-.75v-.008a.75.75 0 0 0-.75-.75h-.008Z" clip-rule="evenodd"/></svg>