<svg width="270" height="270" viewBox="0 0 270 270" fill="none" xmlns="http://www.w3.org/2000/svg">
<circle cx="135" cy="135" r="135" fill="#1D2025"/>
<g clip-path="url(#clip0_1_27)">
<path d="M190.744 166.929C190.744 171.301 186.064 174.091 182.199 172.022L137.871 148.324C136.212 147.434 134.233 147.448 132.553 148.282L49.5914 192.802C50.0452 194.095 50.7757 195.267 51.9954 195.966L76.6945 210.164C78.4389 211.167 80.5805 211.195 82.3533 210.241L132.361 183.33C134.085 182.405 136.155 182.405 137.878 183.33L187.886 210.241C189.659 211.195 191.801 211.167 193.545 210.164L218.244 195.959C220.039 194.928 221.145 193.021 221.145 190.951V100.724L190.737 117.047V166.929H190.744Z" fill="#FBFCFD"/>
<path d="M138.006 47.7628C136.219 46.7457 134.028 46.7457 132.241 47.7628L52.0166 93.5193C50.2083 94.5506 49.095 96.4647 49.095 98.5343V181.818L79.5026 165.495V115.995C79.5026 113.911 80.6301 111.99 82.4526 110.966L132.269 82.9243C134.042 81.9283 136.205 81.9283 137.978 82.9243L184.539 109.122L215.996 92.2409L138.006 47.7628Z" fill="#FBFCFD"/>
<path d="M240.313 185.915C241.752 186.784 242.894 187.971 243.738 189.482C244.582 190.994 245 192.654 245 194.476C245 196.305 244.582 197.979 243.738 199.484C242.894 200.995 241.752 202.182 240.313 203.051C238.873 203.92 237.299 204.358 235.597 204.358C233.881 204.358 232.307 203.92 230.874 203.051C229.442 202.182 228.3 200.988 227.456 199.484C226.612 197.972 226.194 196.305 226.194 194.476C226.194 192.647 226.619 190.98 227.456 189.475C228.3 187.971 229.442 186.784 230.874 185.922C232.314 185.053 233.888 184.623 235.597 184.623C237.306 184.616 238.873 185.046 240.313 185.915ZM239.497 201.617C240.688 200.89 241.632 199.901 242.327 198.643C243.029 197.386 243.376 195.995 243.376 194.476C243.376 192.957 243.029 191.566 242.327 190.316C241.632 189.065 240.688 188.077 239.497 187.356C238.306 186.636 237.008 186.275 235.597 186.275C234.172 186.275 232.867 186.636 231.682 187.356C230.491 188.077 229.548 189.065 228.853 190.316C228.151 191.566 227.804 192.957 227.804 194.476C227.804 195.995 228.151 197.386 228.853 198.643C229.548 199.901 230.498 200.897 231.69 201.617C232.881 202.345 234.186 202.705 235.597 202.705C237.015 202.705 238.313 202.345 239.497 201.617ZM239.674 198.036C239.674 198.813 239.752 199.371 239.901 199.71V199.922H237.852C237.738 199.625 237.682 198.989 237.682 198.022V197.308C237.682 196.673 237.533 196.214 237.242 195.917C236.951 195.62 236.462 195.479 235.781 195.479H233.689V199.922H231.69V188.705H235.413C236.746 188.705 237.795 189.002 238.568 189.602C239.334 190.203 239.724 191.057 239.724 192.173C239.724 193.148 239.235 193.904 238.263 194.441C239.206 194.949 239.682 195.903 239.682 197.294V198.036H239.674ZM237.072 193.303C237.512 193.035 237.724 192.661 237.724 192.173C237.724 191.742 237.653 191.403 237.504 191.156C237.356 190.909 237.114 190.732 236.781 190.619C236.448 190.506 235.987 190.457 235.405 190.457H233.682V193.706H235.455C236.1 193.706 236.639 193.572 237.072 193.303Z" fill="#FBFCFD"/>
</g>
<defs>
<clipPath id="clip0_1_27">
<rect width="220" height="163.937" fill="white" transform="translate(25 47)"/>
</clipPath>
</defs>
</svg>
