<svg width="220" height="164" viewBox="0 0 220 164" fill="none" xmlns="http://www.w3.org/2000/svg">
    <path d="M165.744 119.929C165.744 124.301 161.064 127.091 157.199 125.022L112.871 101.324C111.212 100.434 109.233 100.448 107.553 101.282L24.5914 145.802C25.0452 147.095 25.7757 148.267 26.9954 148.966L51.6945 163.164C53.4389 164.167 55.5805 164.195 57.3533 163.241L107.361 136.33C109.085 135.405 111.155 135.405 112.878 136.33L162.886 163.241C164.659 164.195 166.801 164.167 168.545 163.164L193.244 148.959C195.039 147.928 196.145 146.021 196.145 143.951V53.724L165.737 70.0474V119.929H165.744Z"
          fill="#fff"/>
    <path d="M113.006 0.762843C111.219 -0.254281 109.028 -0.254281 107.241 0.762843L27.0166 46.5193C25.2083 47.5506 24.095 49.4647 24.095 51.5343V134.818L54.5026 118.495V68.9949C54.5026 66.9113 55.6301 64.99 57.4526 63.9658L107.269 35.9243C109.042 34.9283 111.205 34.9283 112.978 35.9243L159.539 62.1223L190.996 45.2409L113.006 0.762843Z"
          fill="#fff"/>
    <path d="M215.313 138.915C216.752 139.784 217.894 140.971 218.738 142.482C219.582 143.994 220 145.654 220 147.476C220 149.305 219.582 150.979 218.738 152.484C217.894 153.995 216.752 155.182 215.313 156.051C213.873 156.92 212.299 157.358 210.597 157.358C208.881 157.358 207.307 156.92 205.874 156.051C204.442 155.182 203.3 153.988 202.456 152.484C201.612 150.972 201.194 149.305 201.194 147.476C201.194 145.647 201.619 143.98 202.456 142.475C203.3 140.971 204.442 139.784 205.874 138.922C207.314 138.053 208.888 137.623 210.597 137.623C212.306 137.616 213.873 138.046 215.313 138.915ZM214.497 154.617C215.688 153.89 216.632 152.901 217.327 151.643C218.029 150.386 218.376 148.995 218.376 147.476C218.376 145.957 218.029 144.566 217.327 143.316C216.632 142.065 215.688 141.077 214.497 140.356C213.306 139.636 212.008 139.275 210.597 139.275C209.172 139.275 207.867 139.636 206.682 140.356C205.491 141.077 204.548 142.065 203.853 143.316C203.151 144.566 202.804 145.957 202.804 147.476C202.804 148.995 203.151 150.386 203.853 151.643C204.548 152.901 205.498 153.897 206.69 154.617C207.881 155.345 209.186 155.705 210.597 155.705C212.015 155.705 213.313 155.345 214.497 154.617ZM214.674 151.036C214.674 151.813 214.752 152.371 214.901 152.71V152.922H212.852C212.738 152.625 212.682 151.989 212.682 151.022V150.308C212.682 149.673 212.533 149.214 212.242 148.917C211.951 148.62 211.462 148.479 210.781 148.479H208.689V152.922H206.69V141.705H210.413C211.746 141.705 212.795 142.002 213.568 142.602C214.334 143.203 214.724 144.057 214.724 145.173C214.724 146.148 214.235 146.904 213.263 147.441C214.206 147.949 214.682 148.903 214.682 150.294V151.036H214.674ZM212.072 146.303C212.512 146.035 212.724 145.661 212.724 145.173C212.724 144.742 212.653 144.403 212.504 144.156C212.356 143.909 212.114 143.732 211.781 143.619C211.448 143.506 210.987 143.457 210.405 143.457H208.682V146.706H210.455C211.1 146.706 211.639 146.572 212.072 146.303Z"
          fill="#fff"/>
</svg>
